<?xml version="1.0" encoding="utf-8"?>
<!-- Generator: Adobe Illustrator 21.0.2, SVG Export Plug-In . SVG Version: 6.00 Build 0)  -->
<svg version="1.1" id="Layer_1" xmlns="http://www.w3.org/2000/svg" xmlns:xlink="http://www.w3.org/1999/xlink" x="0px" y="0px"
	 viewBox="0 0 512 512" style="enable-background:new 0 0 512 512;" xml:space="preserve">
<style type="text/css">
	.st0{fill:#622461;}
	.st1{fill:#722561;}
	.st2{fill:#872460;}
	.st3{fill:#FFFFFF;}
</style>
<circle class="st0" cx="256.1" cy="255.7" r="255.5"/>
<circle class="st1" cx="256.1" cy="255.7" r="219.5"/>
<circle class="st2" cx="256.1" cy="255.7" r="177"/>
<path class="st3" d="M463.3,274.8L326.5,137.9c-1.8-1.8-4.8-1.8-6.7,0L254.8,203l-65.1-65.1c-1.8-1.8-4.8-1.8-6.7,0L46.2,274.8
	c-0.9,0.9-1.4,2.1-1.4,3.3c0,1.3,0.5,2.5,1.4,3.3l68.4,68.4c1.8,1.8,4.8,1.8,6.7,0l65.1-65.1l65.1,65.1c0.4,0.4,0.9,0.7,1.4,0.9
	c1.8,0.8,3.9,0.5,5.3-0.9l65.1-65.1l65.1,65.1c0.9,0.9,2.1,1.4,3.3,1.4c1.2,0,2.4-0.5,3.3-1.4l68.4-68.4c0.9-0.9,1.4-2.1,1.4-3.3
	S464.2,275.7,463.3,274.8z M450.8,280.7L414.1,267l-17-37.8l8.5,1.2l47.7,47.7L450.8,280.7z M429.7,301.8l-10.2-22.7l23.9,9
	L429.7,301.8z M159.3,212.7l-52.8,15.1l53-53L159.3,212.7z M92.8,241.5l38.5-11l-3.1,44.5l-46.1-22.8L92.8,241.5z M140.9,227.8
	l5.1-1.4l18.2,29.2l-27.2,30.1L140.9,227.8z M170.7,248.2l-15.3-24.6l8.4-2.4l22.8,9.4L170.7,248.2z M168.8,213.1l0.1-16.3l52.5,4.3
	l14.2,39.5L168.8,213.1z M214.9,265.3l17.9,11.2l1.7,43.1L209.8,295L214.9,265.3z M216.6,255.3l2-11.4l44.4,18.4l9.9,28.3
	L216.6,255.3z M272.5,261.1l25.9-13L279.2,280L272.5,261.1z M284,244.8l5.1-37.7l31.9,19.1L284,244.8z M331,221.3l-50.7-30.4
	l11.8-11.9l47,16.6l4.6,19.2L331,221.3z M353.3,222.8l9.7,1.4l10.3,97.5l-27.9-27.9L353.3,222.8z M372.6,225.6l13.5,2l14.5,32.3
	l-20.5,36.9L372.6,225.6z M394.5,219.3l-41.5-6.1l-11.2-46.7L394.5,219.3z M323.2,147.9l5.8,5.8c0,0.1,0,0.1,0,0.2l7.4,30.8
	l-37-13.1L323.2,147.9z M258.1,213l15.3-15.3l6.9,4.2l-6.5,48l-7.3,3.7l-19.3-8l-20.5-57.3l24.8,24.8
	C253.3,214.9,256.2,214.9,258.1,213z M186.4,147.9l24.7,24.7l6.7,18.8l-48.9-4l0.1-22.1L186.4,147.9z M75,259.3l52.5,26l-1.5,22.3
	l-49.6-9.2l-20.2-20.2L75,259.3z M117.9,339.9l-29.8-29.8l37.2,6.9l-1.1,16.6L117.9,339.9z M186.3,273.5c-1.3,0-2.5,0.5-3.3,1.4
	l-48.7,48.7l1.6-22.7l59.9-66.4l15.4,5.7l-8,46.6l-12.7-12C189.5,274,187.6,273.5,186.3,273.5z M254.8,340l-10.5-10.5l-1.9-46.9
	l35.5,22.2l3.1,8.9L254.8,340z M319.8,274.9l-31.4,31.4l-5.2-14.8l30.9-51.3l29.4-14.7l-6.6,59.7l-10.4-10.3
	C324.7,273,321.7,273,319.8,274.9z M391.6,339.9l-7.7-7.7l-2-19.2l23.6-42.4l17.2,38.3L391.6,339.9z"/>
</svg>
