<?xml version="1.0" encoding="iso-8859-1"?>
<!-- Generator: Adobe Illustrator 22.0.1, SVG Export Plug-In . SVG Version: 6.00 Build 0)  -->
<svg version="1.1" id="Layer_1" xmlns="http://www.w3.org/2000/svg" xmlns:xlink="http://www.w3.org/1999/xlink" x="0px" y="0px"
	 viewBox="0 0 800 600" style="enable-background:new 0 0 800 600;" xml:space="preserve">
<g>
	<path style="fill:#CCCCCC;" d="M400,35.971c35.647,0,70.224,6.98,102.77,20.746c31.44,13.298,59.677,32.336,83.927,56.587
		c24.25,24.25,43.289,52.487,56.587,83.927c13.766,32.546,20.746,67.123,20.746,102.77s-6.98,70.224-20.746,102.77
		c-13.298,31.44-32.336,59.677-56.587,83.927c-24.25,24.25-52.487,43.289-83.927,56.586c-32.546,13.766-67.123,20.746-102.77,20.746
		s-70.224-6.98-102.77-20.746c-31.44-13.298-59.677-32.336-83.927-56.586c-24.25-24.25-43.289-52.487-56.587-83.927
		c-13.766-32.546-20.746-67.123-20.746-102.77s6.98-70.224,20.746-102.77c13.298-31.44,32.336-59.677,56.587-83.927
		c24.25-24.25,52.487-43.289,83.927-56.587C329.776,42.951,364.353,35.971,400,35.971 M400,28.971
		c-149.685,0-271.029,121.344-271.029,271.029S250.315,571.029,400,571.029S671.029,449.685,671.029,300S549.685,28.971,400,28.971
		L400,28.971z"/>
</g>
<path style="fill:#CCCCCC;" d="M623.225,315.055l-146.45-146.48c-1.97-1.964-5.178-1.952-7.142,0.015l-69.624,69.624l-69.63-69.639
	c-1.975-1.964-5.179-1.952-7.142,0.015l-146.45,146.453c-0.946,0.943-1.479,2.227-1.479,3.556c0,1.338,0.533,2.622,1.479,3.571
	l73.228,73.231c1.969,1.967,5.166,1.967,7.13,0l69.636-69.639l69.63,69.639c0.431,0.422,0.928,0.763,1.461,1.003
	c1.874,0.889,4.173,0.563,5.717-0.988l69.642-69.636l69.63,69.636c0.988,0.988,2.275,1.476,3.568,1.476
	c1.287,0,2.574-0.488,3.562-1.476l73.234-73.234c0.94-0.943,1.467-2.218,1.467-3.556
	C624.691,317.288,624.165,316.004,623.225,315.055z M609.809,321.341l-39.278-14.709l-18.151-40.415l9.07,1.323l51.083,51.087
	L609.809,321.341z M587.269,343.889l-10.919-24.314l25.629,9.602L587.269,343.889z M297.902,248.571l-56.537,16.149l56.729-56.732
	L297.902,248.571z M226.691,279.39l41.188-11.763l-3.281,47.671l-49.384-24.434L226.691,279.39z M278.182,264.687l5.418-1.545
	l19.426,31.199l-29.095,32.256L278.182,264.687z M310.049,286.556l-16.373-26.29l8.944-2.562l24.377,10.078L310.049,286.556z
	 M307.977,249.02l0.078-17.394l56.136,4.595l15.17,42.313L307.977,249.02z M357.355,304.883l19.121,11.976l1.826,46.171
	l-26.395-26.398L357.355,304.883z M359.204,294.147l2.089-12.177l47.504,19.645l10.644,30.265L359.204,294.147z M419.028,300.331
	l27.676-13.874l-20.546,34.135L419.028,300.331z M431.319,282.901l5.484-40.302l34.142,20.435L431.319,282.901z M481.618,257.792
	l-54.304-32.501l12.632-12.699l50.269,17.791l4.945,20.583L481.618,257.792z M505.433,259.344l10.405,1.524l11.003,104.283
	l-29.843-29.849L505.433,259.344z M526.134,262.373l14.416,2.104l15.541,34.596l-21.923,39.44L526.134,262.373z M549.518,255.605
	l-44.42-6.498l-12.033-49.985L549.518,255.605z M473.207,179.261l6.226,6.232c0.012,0.066,0.012,0.135,0.03,0.2l7.932,32.968
	l-39.56-14.024L473.207,179.261z M403.577,248.897l16.385-16.382l7.435,4.454l-7.004,51.407l-7.788,3.906l-20.672-8.546
	L369.95,222.4l26.497,26.497C398.422,250.87,401.601,250.87,403.577,248.897z M326.811,179.261l26.443,26.446l7.208,20.097
	l-52.353-4.28l0.108-23.668L326.811,179.261z M207.69,298.391l56.172,27.778l-1.646,23.91l-53.077-9.815l-21.659-21.666
	L207.69,298.391z M253.583,384.709l-31.867-31.876l39.805,7.358l-1.221,17.798L253.583,384.709z M326.781,313.597
	c-1.341,0-2.622,0.536-3.556,1.473l-52.077,52.074l1.664-24.261l64.062-71.01l16.475,6.151l-8.561,49.883l-13.644-12.838
	C330.206,314.133,328.116,313.597,326.781,313.597z M400.009,384.742l-11.207-11.207l-1.987-50.2l37.991,23.796l3.329,9.483
	L400.009,384.742z M469.663,315.097l-33.62,33.612l-5.556-15.787l33.058-54.909l31.418-15.754l-7.088,63.91l-11.087-11.072
	C474.823,313.124,471.633,313.124,469.663,315.097z M546.429,384.73l-8.243-8.253l-2.173-20.528l25.233-45.399l18.391,40.96
	L546.429,384.73z"/>
</svg>
