<?xml version="1.0" standalone="no"?>
<!DOCTYPE svg PUBLIC "-//W3C//DTD SVG 20010904//EN"
 "http://www.w3.org/TR/2001/REC-SVG-20010904/DTD/svg10.dtd">
<svg version="1.0" xmlns="http://www.w3.org/2000/svg"
 width="547.000000pt" height="547.000000pt" viewBox="0 0 547.000000 547.000000"
 preserveAspectRatio="xMidYMid meet">
<metadata>
Created by potrace 1.15, written by Peter Selinger 2001-2017
</metadata>
<g transform="translate(0.000000,547.000000) scale(0.100000,-0.100000)"
fill="#000000" stroke="none">
<path d="M1995 4001 c-16 -11 -339 -327 -717 -703 -479 -476 -690 -691 -694
-710 -3 -16 -3 -40 0 -55 7 -31 690 -714 739 -740 60 -30 72 -21 404 309 171
171 316 309 322 307 6 -2 152 -142 324 -310 327 -320 347 -336 399 -308 13 7
162 148 331 313 169 166 313 303 318 305 6 2 151 -136 322 -307 333 -331 344
-339 404 -308 50 25 732 707 739 738 16 71 66 16 -807 878 -388 384 -615 601
-632 605 -15 4 -39 4 -54 0 -18 -4 -135 -113 -338 -316 -171 -170 -315 -309
-320 -309 -6 0 -145 135 -310 301 -165 165 -312 307 -327 315 -37 19 -67 18
-103 -5z m195 -127 c63 -63 212 -209 331 -324 l216 -210 331 325 c229 226 337
325 352 325 15 0 88 -64 227 -197 112 -109 210 -197 216 -195 7 2 9 0 5 -4
-10 -9 12 -35 23 -28 5 3 8 0 7 -7 -2 -7 4 -13 12 -14 8 0 15 -7 15 -15 1 -8
7 -14 15 -12 8 2 12 0 8 -4 -11 -10 12 -35 25 -27 5 3 7 2 4 -4 -3 -5 190
-205 429 -444 354 -354 434 -439 434 -460 0 -22 -65 -91 -356 -375 -196 -192
-365 -351 -376 -352 -16 -3 -99 74 -354 329 l-333 333 -331 -330 c-182 -181
-341 -331 -352 -332 -16 -3 -97 72 -355 330 l-333 333 -333 -333 c-199 -199
-340 -332 -351 -332 -11 0 -165 143 -377 351 -292 286 -359 356 -359 378 0 21
80 106 424 450 234 234 423 429 420 433 -3 5 0 7 8 6 7 -2 12 3 10 10 -1 6 3
11 10 10 7 -2 12 2 13 9 0 6 4 15 9 20 5 5 6 3 2 -4 -11 -20 -1 -15 20 9 12
14 14 18 4 13 -9 -5 -12 -5 -7 1 5 5 14 9 20 9 7 1 11 7 9 14 -1 7 1 10 6 7 4
-2 107 91 228 209 165 161 225 214 244 214 19 1 53 -27 140 -115z"/>
<path d="M1962 3787 l-82 -82 0 -108 c0 -61 4 -107 9 -107 14 0 356 -28 418
-35 l52 -5 -31 87 c-30 86 -34 91 -152 211 -66 67 -123 122 -126 122 -3 0 -42
-37 -88 -83z m195 -109 c66 -66 97 -106 108 -137 8 -24 14 -46 12 -48 -2 -2
-42 -5 -88 -8 -58 -3 -75 -2 -54 5 21 6 3 7 -60 5 -64 -3 -81 -2 -60 5 23 7
14 8 -35 5 -36 -3 -60 -3 -55 0 6 3 9 37 7 81 l-4 77 53 53 c29 30 60 54 69
54 8 0 57 -42 107 -92z"/>
<path d="M3301 3756 c-106 -106 -112 -114 -90 -121 23 -6 292 -99 322 -111 24
-9 -53 289 -82 320 -14 14 -27 26 -30 26 -4 0 -57 -51 -120 -114z m139 -28 c6
-24 15 -59 21 -78 15 -58 12 -72 -13 -64 -56 17 -54 17 -38 5 21 -15 11 -14
-43 5 -28 9 -44 20 -41 26 5 7 -2 9 -17 5 -13 -3 -31 -2 -39 4 -11 8 -9 9 9 4
17 -5 21 -4 16 5 -8 13 101 130 122 130 7 0 17 -19 23 -42z"/>
<path d="M3669 3456 l55 -223 125 -18 c69 -9 159 -23 200 -30 l73 -13 -253
254 c-140 140 -254 254 -254 254 0 0 24 -101 54 -224z m284 -228 c-13 -5 -10
-7 11 -7 16 -1 27 -3 24 -6 -3 -3 -32 -2 -64 1 -43 6 -53 9 -39 15 12 5 0 6
-30 3 -38 -4 -46 -3 -35 6 12 8 7 9 -21 5 -26 -5 -36 -3 -36 7 0 7 -12 59 -27
115 -14 56 -26 107 -26 115 0 7 59 -46 130 -117 105 -105 127 -131 113 -137z"/>
<path d="M1518 3344 c-141 -141 -248 -252 -239 -249 30 12 465 135 477 135 7
0 13 58 17 182 3 100 5 183 4 185 -2 1 -118 -113 -259 -253z m205 -2 c-4 -56
-10 -92 -17 -92 -6 0 -4 -5 4 -10 11 -7 5 -8 -20 -4 -28 4 -32 3 -20 -6 12 -9
9 -10 -13 -5 -19 4 -26 2 -22 -5 4 -7 -3 -9 -22 -5 -22 5 -25 4 -13 -5 12 -9
9 -10 -13 -5 -16 3 -26 2 -23 -3 8 -13 -71 -34 -96 -26 -18 5 -4 23 113 140
73 73 137 130 141 126 4 -4 4 -49 1 -100z"/>
<path d="M3050 3505 c-29 -30 -52 -56 -49 -58 17 -16 72 -37 81 -31 7 4 8 3 4
-4 -3 -6 2 -16 13 -21 26 -14 34 -14 25 1 -4 7 -3 8 5 4 6 -4 9 -11 6 -16 -4
-7 142 -100 157 -100 12 0 1 32 -13 41 -20 12 -32 11 -23 -3 4 -7 3 -8 -5 -4
-6 4 -9 11 -6 16 3 4 -31 29 -75 55 -82 48 -94 66 -59 88 13 8 63 -5 210 -57
107 -37 199 -72 206 -77 19 -16 37 -107 24 -123 -6 -7 -8 -16 -4 -20 4 -4 -1
-4 -11 0 -14 5 -17 4 -12 -4 12 -19 -39 3 -130 58 -45 28 -84 50 -87 50 -3 0
-4 -7 -3 -16 3 -20 32 -37 48 -28 6 4 8 3 5 -3 -6 -10 120 -93 141 -93 5 0 35
12 67 26 48 22 56 29 51 48 -3 11 -13 53 -22 93 -14 62 -19 73 -42 81 -179 64
-434 152 -440 152 -4 0 -32 -25 -62 -55z"/>
<path d="M2564 3184 l101 -276 95 -38 c91 -36 96 -37 127 -22 37 18 33 0 68
262 14 102 27 195 30 207 4 16 -3 26 -28 41 l-32 19 -86 -83 c-48 -46 -94 -84
-104 -84 -10 0 -75 57 -145 126 l-127 125 101 -277z m361 44 c-4 -29 -17 -120
-28 -203 l-22 -150 -42 0 c-22 0 -39 3 -37 7 6 10 -34 20 -47 12 -8 -5 -9 -3
-4 6 6 10 4 12 -11 6 -10 -4 -16 -4 -12 -1 3 4 -1 14 -11 24 -16 16 -111 264
-111 291 0 6 21 -6 46 -29 76 -66 112 -62 203 25 36 35 70 63 74 64 5 0 5 -24
2 -52z"/>
<path d="M1880 3310 c0 -68 3 -82 18 -87 46 -16 580 -237 605 -249 15 -8 27
-11 27 -6 0 14 -129 365 -137 372 -5 4 -111 15 -238 24 -126 9 -240 19 -252
22 -22 4 -23 2 -23 -76z m270 -16 c107 -9 200 -21 206 -25 20 -16 89 -222 76
-227 -7 -2 -10 -8 -7 -13 4 -5 -1 -6 -9 -3 -9 3 -13 10 -10 15 3 5 3 9 0 9 -2
0 -12 3 -22 7 -12 4 -15 3 -10 -5 5 -8 2 -10 -8 -6 -9 3 -14 9 -11 13 2 4 -37
25 -88 45 -112 46 -130 52 -97 32 35 -21 13 -18 -35 5 -25 12 -31 17 -15 14
14 -3 1 6 -29 20 -59 28 -65 29 -57 16 4 -5 -3 -7 -15 -4 -16 4 -17 8 -7 14 7
5 10 9 6 9 -3 0 -14 3 -24 7 -12 4 -15 3 -10 -5 5 -8 2 -10 -8 -6 -9 3 -14 10
-11 14 3 5 -4 11 -15 15 -15 5 -20 15 -20 41 0 20 5 34 12 34 7 0 101 -7 208
-16z"/>
<path d="M3061 3118 c-12 -90 -23 -170 -25 -179 -3 -12 47 8 174 70 97 47 176
89 174 92 -3 5 -273 167 -294 177 -4 1 -17 -71 -29 -160z m150 11 c38 -23 69
-43 69 -45 0 -2 -41 -24 -91 -50 l-92 -46 7 64 c11 90 17 118 28 118 5 0 41
-19 79 -41z"/>
<path d="M1773 3133 c-13 -2 -23 -8 -23 -13 0 -5 32 -59 72 -120 l72 -112 72
79 c40 43 73 80 74 83 0 10 -204 90 -225 89 -11 -1 -30 -4 -42 -6z"/>
<path d="M3725 3117 c-2 -7 -20 -164 -40 -351 l-37 -339 133 -133 c73 -73 134
-132 135 -131 0 1 -5 56 -12 122 -7 66 -29 280 -49 475 -21 195 -38 356 -39
356 0 1 -20 4 -44 7 -29 3 -44 1 -47 -6z m90 -475 c20 -189 35 -347 33 -353
-2 -5 -36 23 -76 64 l-72 73 30 274 c29 260 38 318 46 295 1 -5 19 -164 39
-353z"/>
<path d="M3473 3026 l-143 -71 -150 -249 c-82 -137 -150 -254 -150 -261 0 -7
10 -40 23 -73 l23 -61 159 159 c123 123 166 160 185 160 18 0 42 -17 80 -55
l55 -56 32 283 c18 156 31 286 30 289 -1 4 -66 -25 -144 -65z m66 -221 c-11
-99 -22 -182 -24 -184 -3 -2 -16 4 -29 13 -14 9 -33 13 -42 9 -10 -4 -15 -2
-11 3 3 5 -3 10 -13 10 -10 0 -16 -4 -13 -9 3 -5 -4 -6 -16 -2 -18 5 -44 -15
-157 -126 -107 -106 -137 -130 -144 -119 -5 8 -10 17 -10 20 0 3 65 111 143
240 l142 235 94 48 c52 26 95 46 97 44 2 -2 -6 -84 -17 -182z"/>
<path d="M3923 3073 c3 -15 20 -171 38 -345 l33 -317 99 176 99 176 -33 76
c-80 184 -109 240 -126 244 -10 3 -40 8 -67 12 l-49 7 6 -29z m143 -170 c31
-65 58 -130 61 -144 4 -20 -7 -48 -42 -108 -26 -46 -51 -79 -55 -74 -6 6 -51
401 -50 436 0 4 7 7 16 7 10 0 35 -41 70 -117z"/>
<path d="M1604 3078 c-6 -10 -42 -452 -44 -535 0 -17 24 4 97 85 53 59 112
123 131 144 l34 36 -88 141 c-85 137 -110 162 -130 129z m95 -188 c28 -45 51
-87 51 -95 0 -8 -30 -45 -66 -82 l-65 -68 5 70 c3 39 8 112 12 163 4 50 8 92
9 92 2 0 26 -36 54 -80z"/>
<path d="M4236 2918 c36 -79 73 -160 82 -181 17 -38 20 -40 197 -106 163 -61
205 -72 205 -52 0 4 -107 113 -238 244 -223 223 -240 237 -274 237 l-37 0 65
-142z m292 -235 c12 -13 20 -29 17 -34 -4 -5 -1 -9 6 -9 7 0 10 -2 7 -5 -3 -3
-16 -1 -29 4 -13 5 -17 10 -9 11 13 1 13 2 0 9 -8 5 -26 12 -40 15 -19 6 -21
5 -10 -3 18 -13 3 -13 -25 -1 -14 6 -15 9 -5 10 8 0 -4 9 -28 20 -37 17 -46
28 -76 94 -58 127 -56 128 60 17 60 -57 119 -115 132 -128z"/>
<path d="M1291 2995 c-181 -52 -184 -53 -233 -102 l-49 -49 223 -111 c123 -61
225 -109 227 -107 4 3 30 338 31 392 0 17 -3 32 -7 31 -5 0 -91 -25 -192 -54z
m142 -42 c5 -9 -12 -266 -18 -271 -1 -2 -35 13 -75 33 -40 20 -79 34 -87 31
-8 -3 -12 -2 -9 3 7 11 -22 23 -36 14 -7 -4 -8 -1 -3 7 6 10 4 12 -9 7 -11 -5
-15 -3 -10 5 5 8 2 9 -10 5 -11 -5 -15 -3 -10 5 5 8 2 9 -10 5 -11 -5 -15 -3
-10 5 5 8 2 9 -10 5 -11 -5 -15 -3 -10 5 5 7 2 9 -8 6 -9 -4 -15 0 -15 8 0 31
49 56 178 94 155 44 147 42 152 33z"/>
<path d="M1847 2685 l-296 -325 -5 -52 c-3 -29 -7 -79 -9 -111 l-4 -59 246
246 c206 205 251 246 274 246 21 0 45 -16 93 -62 35 -34 66 -59 68 -57 3 4 77
427 76 441 0 6 -127 58 -142 58 -3 0 -139 -146 -301 -325z m352 234 c38 -13
38 -20 10 -184 -28 -160 -23 -152 -62 -123 -45 34 -62 43 -54 30 5 -6 -1 -8
-14 -5 -14 4 -17 8 -8 13 7 5 2 7 -14 7 -14 -1 -23 -6 -20 -11 3 -4 -4 -5 -16
-1 -19 6 -52 -23 -221 -191 -110 -109 -202 -195 -205 -192 -19 19 36 90 284
363 152 168 279 305 282 305 3 0 20 -5 38 -11z"/>
<path d="M2366 2868 c-4 -28 -3 -55 1 -59 6 -6 386 -244 530 -332 6 -4 -9 53
-35 127 l-47 133 -190 78 c-104 43 -204 84 -221 91 l-32 13 -6 -51z m226 -114
c90 -36 168 -71 175 -76 12 -9 46 -99 40 -105 -2 -1 -62 34 -133 78 -141 89
-162 100 -149 79 5 -9 4 -11 -4 -6 -6 4 -9 11 -6 16 3 4 -17 22 -45 39 -45 28
-60 41 -45 41 3 0 78 -30 167 -66z"/>
<path d="M3037 2808 c-71 -35 -117 -64 -114 -71 2 -7 15 -41 27 -77 13 -36 26
-68 29 -72 3 -3 45 57 94 134 48 78 86 142 85 144 -2 1 -56 -25 -121 -58z"/>
<path d="M837 2672 l-88 -88 101 -100 101 -99 177 -32 c97 -17 207 -38 244
-45 l67 -14 6 85 c3 47 8 95 10 106 4 18 -30 37 -250 148 -140 70 -261 127
-268 127 -7 0 -52 -40 -100 -88z m339 -101 l224 -110 0 -55 c0 -30 -4 -57 -8
-60 -5 -3 -29 -8 -53 -11 -34 -5 -40 -4 -29 5 12 8 6 9 -25 5 -30 -5 -36 -4
-25 4 11 9 4 10 -30 5 -35 -4 -42 -3 -30 6 12 9 10 10 -13 5 -36 -7 -99 4 -91
17 4 6 -2 8 -15 3 -11 -3 -42 -3 -68 1 -37 5 -44 9 -28 15 13 5 15 8 5 8 -18
1 -160 141 -160 157 0 11 104 114 115 114 4 0 107 -49 231 -109z"/>
<path d="M2336 2688 c-3 -7 -14 -71 -26 -142 l-21 -130 119 -119 118 -118 -3
88 c-2 48 -6 143 -9 210 l-6 122 -71 44 c-100 61 -97 60 -101 45z m89 -118
c30 -18 33 -25 38 -87 4 -38 7 -97 7 -133 l0 -64 -60 59 c-46 46 -60 66 -60
89 0 48 23 156 33 156 5 0 24 -9 42 -20z"/>
<path d="M4129 2442 l-115 -207 10 -96 c11 -92 13 -97 48 -131 l37 -34 152
152 151 152 -82 183 c-45 101 -83 185 -84 186 -1 1 -53 -91 -117 -205z m173
-60 l52 -113 -120 -120 c-65 -65 -124 -119 -130 -119 -18 0 -25 27 -31 110
l-4 75 81 143 c45 79 86 142 91 140 6 -2 33 -54 61 -116z"/>
<path d="M4400 2556 c0 -2 20 -47 45 -101 l46 -98 62 59 c35 33 60 62 57 66
-4 6 -194 78 -205 78 -3 0 -5 -2 -5 -4z"/>
<path d="M2622 2403 c3 -71 6 -173 7 -228 l1 -101 53 -52 52 -52 129 129 128
129 -14 43 c-14 41 -23 48 -187 151 -95 59 -173 108 -174 108 -1 0 1 -57 5
-127z m159 -54 c117 -72 149 -97 149 -117 0 -26 -185 -206 -204 -199 -35 14
-44 50 -51 216 -6 143 -5 163 8 158 8 -3 53 -29 98 -58z"/>
<path d="M1218 2117 l140 -140 30 22 c28 19 31 28 37 95 4 41 5 80 3 87 -3 8
-69 25 -177 44 l-173 32 140 -140z"/>
</g>
</svg>
