<?xml version="1.0" standalone="no"?>
<!DOCTYPE svg PUBLIC "-//W3C//DTD SVG 20010904//EN"
 "http://www.w3.org/TR/2001/REC-SVG-20010904/DTD/svg10.dtd">
<svg version="1.0" xmlns="http://www.w3.org/2000/svg"
 width="547.000000pt" height="547.000000pt" viewBox="0 0 547.000000 547.000000"
 preserveAspectRatio="xMidYMid meet">
<metadata>
Created by potrace 1.15, written by Peter Selinger 2001-2017
</metadata>
<g transform="translate(0.000000,547.000000) scale(0.100000,-0.100000)"
fill="#000000" stroke="none">
<path d="M2380 5464 c-14 -3 -68 -11 -120 -20 -427 -68 -894 -277 -1250 -560
-109 -87 -337 -315 -424 -424 -235 -296 -426 -679 -516 -1040 -63 -249 -65
-273 -65 -675 0 -402 2 -426 65 -675 90 -361 281 -744 516 -1040 87 -109 315
-337 424 -424 335 -266 752 -461 1166 -545 336 -68 762 -68 1098 0 414 84 831
279 1166 545 109 87 337 315 424 424 266 335 461 752 545 1166 68 336 68 762
0 1098 -84 414 -279 831 -545 1166 -87 109 -315 337 -424 424 -296 235 -680
426 -1040 516 -239 60 -268 63 -645 66 -192 1 -361 0 -375 -2z m35 -1814 l330
-330 330 330 c182 182 338 330 346 330 20 0 1403 -1384 1407 -1408 4 -23 -698
-732 -725 -732 -10 0 -159 141 -348 330 l-330 330 -330 -330 c-210 -210 -338
-330 -350 -330 -13 0 -140 120 -350 330 l-330 330 -330 -330 c-206 -206 -338
-330 -350 -330 -12 0 -152 132 -372 352 -278 278 -353 358 -353 378 0 20 141
166 693 718 443 443 699 692 712 692 12 0 142 -122 350 -330z"/>
<path d="M1977 3772 l-87 -87 0 -107 0 -106 88 -7 c48 -4 155 -12 237 -20 83
-7 151 -11 153 -10 2 2 -11 43 -28 92 -31 89 -32 91 -153 211 l-122 122 -88
-88z"/>
<path d="M3305 3740 c-60 -60 -107 -111 -104 -114 5 -5 343 -125 346 -123 1 1
-15 71 -36 154 -35 143 -57 193 -85 193 -6 0 -61 -49 -121 -110z"/>
<path d="M3647 3518 c19 -79 41 -174 50 -213 8 -38 20 -75 27 -81 11 -11 375
-68 383 -60 5 5 -479 496 -488 496 -4 0 9 -64 28 -142z"/>
<path d="M1535 3330 c-137 -137 -245 -250 -240 -250 14 0 485 136 490 142 9 9
18 358 9 358 -5 0 -122 -112 -259 -250z"/>
<path d="M3057 3492 l-57 -57 238 -142 c131 -78 245 -145 254 -148 12 -5 107
33 127 51 2 1 -7 45 -20 97 l-22 94 -106 37 c-58 21 -162 58 -230 82 -68 24
-124 44 -125 44 -1 0 -27 -26 -59 -58z"/>
<path d="M2480 3433 c0 -9 96 -282 175 -499 15 -38 20 -42 110 -79 86 -34 97
-37 125 -25 17 7 33 16 35 20 8 13 56 368 58 427 2 49 -1 55 -25 70 l-27 17
-84 -82 c-47 -45 -93 -82 -103 -82 -11 0 -73 54 -141 122 -68 68 -123 118
-123 111z"/>
<path d="M1892 3293 l3 -78 319 -132 c176 -73 321 -131 324 -129 5 6 -117 356
-129 370 -7 8 -396 45 -482 46 l-38 0 3 -77z"/>
<path d="M3061 3095 c-13 -97 -21 -178 -18 -181 4 -4 297 139 336 164 9 7 -29
35 -139 101 -83 50 -152 91 -153 91 -1 0 -13 -79 -26 -175z"/>
<path d="M1788 3119 l-27 -10 69 -112 c37 -61 73 -113 78 -115 5 -1 42 33 82
78 l72 80 -38 16 c-22 9 -70 29 -108 45 -73 31 -86 33 -128 18z"/>
<path d="M3724 3106 c-6 -16 -74 -625 -74 -663 0 -28 17 -50 130 -163 71 -71
131 -130 133 -130 2 0 0 28 -4 63 -4 34 -27 247 -50 472 -23 226 -44 412 -45
414 -2 2 -22 7 -44 11 -28 5 -43 4 -46 -4z"/>
<path d="M3920 3073 c-1 -44 64 -649 70 -656 8 -9 190 312 190 334 0 7 -30 82
-67 166 l-66 152 -46 6 c-25 4 -54 9 -63 12 -12 3 -18 -1 -18 -14z"/>
<path d="M1628 3068 c-13 -11 -19 -64 -33 -281 -9 -148 -15 -270 -13 -272 5
-6 253 271 253 282 0 16 -170 283 -181 283 -5 0 -17 -6 -26 -12z"/>
<path d="M3468 3015 c-81 -41 -133 -74 -145 -92 -11 -15 -82 -131 -157 -256
l-137 -228 22 -67 c12 -37 23 -69 26 -71 2 -3 77 68 166 157 90 89 171 162
180 162 8 0 42 -25 74 -56 35 -34 59 -51 60 -43 1 8 14 120 28 249 14 129 28
252 31 273 4 27 2 37 -8 36 -7 0 -70 -29 -140 -64z"/>
<path d="M4211 2939 c28 -63 65 -146 82 -185 l32 -71 178 -67 c127 -47 183
-64 192 -56 9 7 -49 71 -223 245 -207 207 -240 236 -274 241 l-38 7 51 -114z"/>
<path d="M1322 2985 l-183 -51 -51 -52 c-29 -28 -50 -53 -48 -56 10 -8 430
-216 439 -216 8 0 37 397 30 417 -2 6 -73 -9 -187 -42z"/>
<path d="M1858 2669 l-298 -330 0 -52 c0 -28 -3 -77 -6 -107 l-6 -55 249 248
c137 136 256 247 264 247 21 0 56 -25 117 -84 28 -28 52 -48 52 -46 0 3 18
105 39 228 38 219 38 223 19 233 -16 9 -129 50 -132 49 -1 -1 -135 -149 -298
-331z"/>
<path d="M2375 2849 c-4 -27 -5 -52 -4 -54 20 -19 535 -333 537 -327 1 5 -17
64 -42 133 l-44 124 -73 31 c-257 108 -346 144 -356 144 -6 0 -14 -23 -18 -51z"/>
<path d="M3041 2799 c-63 -32 -115 -60 -116 -61 -2 -2 12 -43 29 -92 l32 -89
89 147 c48 81 86 148 84 150 -2 2 -55 -22 -118 -55z"/>
<path d="M865 2660 l-90 -90 100 -100 101 -101 214 -39 c118 -22 227 -42 242
-45 31 -7 33 -1 42 137 l6 76 -256 126 c-141 69 -259 126 -263 126 -3 0 -47
-41 -96 -90z"/>
<path d="M2346 2679 c-3 -8 -14 -72 -26 -143 l-21 -130 121 -120 120 -121 -5
150 c-3 83 -8 178 -11 212 l-5 61 -62 38 c-34 21 -72 44 -84 52 -19 12 -24 12
-27 1z"/>
<path d="M4120 2429 l-113 -203 10 -98 c9 -95 11 -98 48 -133 l39 -35 148 149
c81 82 148 154 148 159 0 13 -149 344 -159 355 -5 4 -59 -83 -121 -194z"/>
<path d="M4390 2546 c0 -9 81 -190 89 -199 7 -7 121 107 121 122 0 5 -83 38
-197 79 -7 2 -13 1 -13 -2z"/>
<path d="M2624 2448 c3 -40 9 -143 12 -229 l6 -157 52 -51 51 -51 128 128 127
128 -15 44 c-15 43 -23 50 -167 140 -83 52 -162 101 -175 108 l-24 13 5 -73z"/>
<path d="M1240 2106 l145 -146 31 33 c30 29 33 38 36 110 3 71 2 78 -17 82
-38 9 -170 34 -235 45 -36 6 -74 14 -85 17 -11 3 45 -61 125 -141z"/>
</g>
</svg>
