<svg xmlns="http://www.w3.org/2000/svg" viewBox="0 0 95 50" class="head">
    <path class="head"
          d="M91.88,30.37l-30-30a1,1,0,0,0-1.45,0L46.09,14.59,31.79.3a1,1,0,0,0-1.45,0l-30,30a1,1,0,0,0,0,1.45l15,15a1,1,0,0,0,1.45,0l14.3-14.29L45.36,46.81a.69.69,0,0,0,.3.2,1,1,0,0,0,1.15-.2l14.3-14.29L75.4,46.81a1,1,0,0,0,1.46,0l15-15a1,1,0,0,0,.29-.72A1,1,0,0,0,91.88,30.37Zm-2.75,1.29-8.07-3-3.74-8.3,1.85.26L89.66,31.1ZM84.5,36.29l-2.25-5,5.26,2ZM25.14,16.74,13.53,20.05,25.18,8.4ZM10.52,23.06,19,20.64l-.66,9.8-10.13-5Zm10.55-3,1.13-.33,4,6.42-6,6.61Zm6.56,4.47-3.38-5.4,1.82-.53,5,2.09Zm-.43-7.71V13.23l11.51.93,3.11,8.67ZM37.35,28.29l3.94,2.45.36,9.46-5.42-5.43Zm.37-2.22.43-2.51,9.76,4,2.18,6.22ZM50,27.36l5.69-2.84-4.2,7Zm2.51-3.57,1.13-8.27,7,4.2Zm10.33-5.16L51.68,11.94l2.58-2.61L64.58,13l1,4.23Zm4.89.29,2.15.3,2.25,21.41L66,34.51Zm4.24.63L74.9,20l3.18,7.12-4.5,8.1Zm4.8-1.39-9.14-1.32L65.14,6.58ZM61.11,2.51,62.4,3.8v0L64,10.59,55.91,7.71Zm-14.3,14.3,3.38-3.38,1.52.93L50.29,24.91l-1.59.8L44.47,24,40,11.38l5.42,5.43a1,1,0,0,0,1.41,0ZM31.07,2.51l5.42,5.43L38,12.08l-10.75-.9,0-4.86ZM6.62,27l11.51,5.69-.33,4.9-10.89-2L2.48,31.1Zm9.43,17.7L9.5,38.11l8.17,1.53-.27,3.63Zm15-14.59a1,1,0,0,0-.73.3L19.65,41.06l.33-5L33.12,21.54l3.37,1.26L34.74,33l-2.81-2.65A1.34,1.34,0,0,0,31.07,30.07Zm15,14.59-2.32-2.31-.4-10.29L51.18,37l.7,1.95ZM60.38,30.37l-6.92,6.88L52.34,34l6.78-11.28,6.45-3.24-1.45,13.1-2.29-2.28A1.1,1.1,0,0,0,60.38,30.37ZM76.13,44.66,74.44,43,74,38.77l5.19-9.32L83,37.85Z"/>
</svg>
